<svg width="277" height="263" viewBox="14 13 249 237" fill="none" xmlns="http://www.w3.org/2000/svg">
<path d="M102.067 118.623L138.318 141.133L172.942 118.09L219.73 89.4645L138.322 40.2735L54.3488 89.4645L92.6271 112.914L136.721 86.0738C137.701 85.4774 138.935 85.4918 139.9 86.111L181.7 112.914L172.942 118.09L138.322 96.3058L102.067 118.623L72.1824 111.152L39.5056 93.226C37.4716 92.1102 37.4197 89.2067 39.4125 88.0188L136.772 29.9871C137.724 29.4198 138.911 29.4233 139.859 29.9962L235.813 87.9547C237.813 89.1624 237.726 92.091 235.658 93.178L215.995 103.515L234.349 114.394C236.26 115.527 236.319 118.273 234.458 119.487L215.995 131.532L234.257 142.185C236.173 143.303 236.255 146.042 234.409 147.273L215.995 159.549L234.067 170.091C236.028 171.235 236.057 174.06 234.119 175.243L152.497 225.087L138.318 223.315L217.862 172.624L206.656 165.153L139.854 205.576C138.909 206.148 137.725 206.154 136.773 205.591L68.4395 165.152L55.4803 172.624L138.318 223.315L152.497 225.087L139.906 233.466C138.937 234.11 137.683 234.136 136.688 233.533L40.8556 175.38C38.9709 174.236 38.9221 171.519 40.7645 170.308L57.139 159.549L41.7375 147.228C40.1311 145.943 40.2653 143.459 42.001 142.354L59.0069 131.532L40.8547 121.085C38.9587 119.993 38.8306 117.305 40.6144 116.039L59.0068 102.979L68.1637 108.505L54.3488 118.09L128.216 161.582L124.48 170.921L68.4396 137.136L55.095 144.772L138.322 195.299L219.73 145.396L206.656 137.398L139.794 177.602C138.88 178.151 137.744 178.174 136.808 177.663L124.48 170.921L128.216 161.582L138.322 167.282L219.737 116.755L207.43 109.382L139.904 151.354C138.933 151.957 137.704 151.957 136.734 151.353L72.1824 111.152L102.067 118.623Z" fill="white"/>
<path d="M74.8144 96.3051L136.709 58.076C137.693 57.4684 138.938 57.4803 139.91 58.1064L199.209 96.3051L190.244 101.908L138.319 68.2883L84.1533 101.908L74.8144 96.3051Z" fill="white"/>
</svg>
