<svg xmlns="http://www.w3.org/2000/svg" width="135" height="36" fill="none"><path d="M 31.123 26.971 L 31.123 8.99 L 15.561 0 L 0 8.99 L 0 26.971 L 15.561 35.961 Z" fill="rgb(255,249,235)"></path><path d="M 15.571 25.831 L 15.562 25.831 L 15.562 31.249 L 15.566 31.249 L 15.563 31.248 L 15.563 25.835 L 15.571 25.83 Z M 15.806 25.343 C 16.084 25.279 16.319 25.112 16.467 24.873 C 16.609 24.643 16.652 24.372 16.589 24.111 C 16.475 23.639 16.041 23.319 15.563 23.319 L 15.561 23.319 L 15.561 25.37 C 15.642 25.37 15.724 25.362 15.805 25.343 Z M 15.806 33.732 C 16.084 33.668 16.319 33.501 16.467 33.263 C 16.609 33.033 16.652 32.762 16.589 32.5 C 16.475 32.028 16.041 31.709 15.563 31.709 L 15.561 31.709 L 15.561 33.759 C 15.642 33.759 15.724 33.751 15.805 33.732 Z" fill="rgb(75,147,40)"></path><path d="M 15.561 0 L 0 8.99 L 0 26.971 L 3.157 28.795 L 3.157 28.794 C 3.157 28.794 3.157 28.791 3.157 28.79 C 3.157 28.788 3.156 28.787 3.156 28.786 C 3.048 28.168 2.933 27.047 3.226 26.604 C 3.475 26.371 3.807 26.706 4.034 26.843 C 4.742 27.375 5.486 27.86 6.301 28.206 C 7.337 28.631 8.934 29.206 10.014 28.724 C 10.53 28.487 10.655 27.81 10.214 27.426 C 10.027 27.255 9.753 27.145 9.498 27.083 C 7.512 26.723 6.274 26.312 4.802 24.859 C 4.231 24.309 3.563 23.681 3.385 22.847 C 3.267 22.314 3.329 21.806 3.417 21.312 C 3.48 20.989 3.551 20.687 3.65 20.563 C 3.891 20.271 4.27 21.004 4.436 21.179 C 4.677 21.5 4.951 21.832 5.224 22.153 C 6.354 23.516 8.301 25.109 10.113 25.254 C 11.291 25.249 11.408 24.039 10.425 23.548 C 9.467 23.064 8.479 22.686 7.69 21.942 C 6.849 21.182 6.449 20.539 5.791 19.448 C 5.637 19.182 5.494 18.897 5.395 18.607 C 5.203 18.091 5.201 17.53 5.413 17.03 C 5.554 16.679 5.837 16.171 6.078 15.979 C 6.486 15.684 6.699 16.395 6.848 16.695 C 6.972 16.984 7.102 17.266 7.242 17.543 C 7.76 18.562 8.316 19.398 9.053 20.239 C 9.919 21.18 10.903 22.144 12.222 22.422 C 12.655 22.495 13.133 22.406 13.289 21.966 C 13.484 21.426 12.928 20.894 12.476 20.605 C 11.021 19.711 9.889 18.499 9.175 16.948 C 8.802 16.11 8.314 15.119 8.427 14.251 C 8.594 13.376 9.141 12.548 9.847 11.997 C 10.178 11.767 10.691 11.361 10.94 11.714 C 11.049 11.903 11.072 12.136 11.126 12.373 C 11.198 12.713 11.29 13.065 11.398 13.403 C 11.828 14.773 12.588 16.11 13.599 17.143 C 14.392 17.968 14.353 17.325 14.27 16.622 C 14.195 15.886 13.972 15.205 13.676 14.522 C 13.015 12.978 12.878 12.327 13.056 11.909 C 13.414 11.07 14.38 10.826 15.02 9.817 C 15.314 9.353 15.451 8.853 15.451 8.853 C 15.479 8.764 15.505 8.665 15.526 8.556 C 15.543 8.472 15.555 8.393 15.563 8.319 C 15.579 8.541 15.619 8.719 15.654 8.843 C 15.714 9.058 15.787 9.216 15.884 9.423 C 15.943 9.55 16.005 9.691 16.084 9.817 C 17.628 12.211 18.99 10.875 17.429 14.523 C 17.133 15.206 16.91 15.887 16.834 16.622 C 16.779 17.09 16.744 17.531 16.959 17.531 C 17.068 17.531 17.24 17.42 17.505 17.144 C 18.517 16.111 19.278 14.773 19.707 13.404 C 19.814 13.066 19.907 12.713 19.979 12.373 C 20.032 12.136 20.055 11.903 20.164 11.714 C 20.234 11.615 20.325 11.576 20.428 11.576 C 20.688 11.576 21.02 11.832 21.257 11.998 C 21.963 12.548 22.51 13.376 22.678 14.252 C 22.791 15.119 22.303 16.11 21.93 16.949 C 21.216 18.499 20.083 19.711 18.629 20.605 C 18.177 20.894 17.621 21.426 17.816 21.966 C 17.94 22.318 18.271 22.446 18.619 22.446 C 18.707 22.446 18.795 22.438 18.882 22.423 C 20.201 22.145 21.185 21.18 22.051 20.24 C 22.788 19.399 23.344 18.562 23.862 17.544 C 24.002 17.267 24.132 16.985 24.256 16.696 C 24.38 16.446 24.549 15.909 24.838 15.909 C 24.895 15.909 24.958 15.93 25.025 15.979 C 25.267 16.171 25.549 16.68 25.69 17.031 C 25.903 17.53 25.9 18.092 25.709 18.607 C 25.609 18.897 25.467 19.183 25.312 19.449 C 24.655 20.54 24.254 21.182 23.414 21.943 C 22.624 22.687 21.637 23.065 20.679 23.548 C 19.695 24.04 19.812 25.25 20.991 25.255 C 22.803 25.109 24.749 23.517 25.88 22.154 C 26.153 21.833 26.426 21.501 26.668 21.18 C 26.806 21.033 27.094 20.495 27.326 20.495 C 27.372 20.495 27.414 20.515 27.454 20.563 C 27.553 20.687 27.624 20.989 27.687 21.312 C 27.775 21.806 27.837 22.314 27.719 22.847 C 27.54 23.681 26.873 24.309 26.302 24.859 C 24.83 26.312 23.592 26.723 21.606 27.083 C 21.351 27.145 21.077 27.255 20.89 27.426 C 20.449 27.81 20.573 28.487 21.09 28.724 C 21.381 28.853 21.71 28.907 22.055 28.907 C 22.99 28.907 24.046 28.516 24.803 28.207 C 25.618 27.86 26.362 27.376 27.07 26.844 C 27.241 26.74 27.472 26.524 27.682 26.524 C 27.751 26.524 27.817 26.547 27.878 26.605 C 28.172 27.049 28.055 28.178 27.946 28.794 C 27.945 28.799 27.944 28.805 27.944 28.81 L 31.125 26.972 L 31.125 8.99 Z" fill="rgb(75,147,40)"></path><path d="M 15.562 25.835 L 15.551 25.829 L 13.203 27.185 L 13.203 29.898 L 15.551 31.254 L 15.562 31.248 Z M 14.658 32.207 C 14.632 32.25 14.609 32.295 14.59 32.341 C 14.53 32.477 14.503 32.624 14.508 32.772 C 14.51 32.838 14.52 32.904 14.536 32.969 C 14.669 33.521 15.239 33.864 15.806 33.733 C 15.91 33.709 16.009 33.67 16.098 33.619 C 16.188 33.568 16.27 33.504 16.34 33.428 C 16.364 33.403 16.386 33.376 16.407 33.349 C 16.429 33.322 16.448 33.293 16.467 33.263 C 16.574 33.091 16.625 32.895 16.617 32.698 C 16.614 32.632 16.605 32.566 16.589 32.501 C 16.475 32.028 16.041 31.709 15.563 31.709 C 15.502 31.709 15.441 31.715 15.38 31.725 C 15.36 31.728 15.339 31.732 15.318 31.737 C 15.04 31.801 14.805 31.968 14.657 32.207 Z M 27.962 24.986 L 27.96 24.988 C 27.826 25.207 27.686 25.422 27.541 25.632 C 27.282 26.007 27.005 26.367 26.714 26.715 C 27.172 26.17 27.589 25.592 27.962 24.985 Z" fill="rgb(75,147,40)"></path><path d="M 15.378 8.333 L 15.378 8.345 C 15.378 8.342 15.379 8.339 15.38 8.336 L 15.378 8.333 Z" fill="rgb(255,249,235)"></path><path d="M 14.658 23.817 C 14.516 24.047 14.472 24.318 14.536 24.579 C 14.669 25.132 15.239 25.474 15.806 25.343 C 16.084 25.279 16.319 25.112 16.467 24.873 C 16.609 24.643 16.652 24.372 16.589 24.111 C 16.475 23.639 16.041 23.319 15.563 23.319 C 15.482 23.319 15.401 23.329 15.319 23.347 C 15.04 23.412 14.806 23.578 14.658 23.817 Z" fill="rgb(75,147,40)"></path><path d="M 15.562 24.954 L 15.562 24.065 L 15.543 24.054 L 14.55 24.628 C 14.629 24.895 14.81 25.108 15.043 25.236 L 15.547 24.945 Z M 12.434 26.744 L 14.602 25.492 C 14.4 25.329 14.24 25.115 14.144 24.863 L 11.66 26.298 L 11.66 30.785 L 14.142 32.219 C 14.175 32.131 14.217 32.046 14.267 31.965 C 14.355 31.822 14.467 31.695 14.597 31.589 L 12.434 30.34 Z" fill="rgb(75,147,40)"></path><path d="M 27.562 27.062 C 27.532 27.082 27.501 27.104 27.477 27.121 C 27.428 27.155 27.378 27.191 27.327 27.223 C 26.47 27.866 25.724 28.313 24.981 28.629 L 24.978 28.63 L 24.975 28.632 C 24.14 28.974 23.054 29.366 22.053 29.366 C 21.62 29.366 21.232 29.291 20.9 29.143 L 20.898 29.142 L 20.895 29.141 C 20.502 28.96 20.231 28.601 20.171 28.179 C 20.111 27.769 20.265 27.359 20.582 27.082 C 20.861 26.829 21.232 26.7 21.494 26.636 L 21.507 26.633 L 21.521 26.63 C 23.495 26.272 24.606 25.884 25.976 24.531 L 25.978 24.529 L 25.98 24.527 L 26.02 24.489 C 26.536 23.991 27.121 23.428 27.266 22.75 L 27.266 22.748 L 27.267 22.746 C 27.361 22.322 27.321 21.899 27.232 21.396 C 27.22 21.335 27.209 21.281 27.199 21.233 C 27.195 21.238 27.192 21.243 27.189 21.248 C 27.128 21.334 27.074 21.411 27.02 21.472 C 26.804 21.758 26.545 22.077 26.229 22.449 C 25.576 23.235 24.767 23.977 23.948 24.539 C 22.921 25.244 21.937 25.639 21.024 25.712 L 21.005 25.714 L 20.986 25.714 C 20.118 25.711 19.693 25.213 19.584 24.748 C 19.439 24.122 19.794 23.474 20.47 23.137 C 20.67 23.036 20.874 22.938 21.07 22.844 C 21.816 22.487 22.521 22.149 23.095 21.607 L 23.099 21.604 L 23.102 21.601 C 23.885 20.893 24.262 20.295 24.913 19.213 C 25.072 18.941 25.192 18.687 25.271 18.457 L 25.272 18.451 L 25.275 18.446 C 25.43 18.029 25.426 17.59 25.264 17.21 L 25.263 17.206 L 25.261 17.201 C 25.157 16.941 24.994 16.651 24.86 16.474 C 24.817 16.557 24.775 16.655 24.748 16.715 C 24.722 16.776 24.697 16.834 24.671 16.887 C 24.536 17.2 24.404 17.482 24.269 17.75 C 23.722 18.824 23.144 19.685 22.394 20.542 L 22.39 20.546 L 22.386 20.55 C 21.499 21.513 20.432 22.564 18.974 22.872 L 18.964 22.873 L 18.955 22.875 C 18.84 22.895 18.726 22.904 18.615 22.904 C 18.015 22.904 17.553 22.611 17.379 22.12 C 17.147 21.476 17.52 20.764 18.377 20.216 L 18.38 20.213 L 18.384 20.211 C 19.801 19.341 20.851 18.179 21.507 16.757 L 21.597 16.557 C 21.926 15.823 22.301 14.991 22.219 14.322 C 22.076 13.594 21.614 12.865 20.98 12.366 C 20.957 12.35 20.934 12.334 20.91 12.316 C 20.821 12.253 20.637 12.123 20.511 12.064 C 20.493 12.13 20.478 12.208 20.461 12.289 C 20.45 12.348 20.439 12.407 20.424 12.47 C 20.349 12.823 20.252 13.193 20.141 13.541 C 19.676 15.022 18.856 16.415 17.831 17.462 C 17.471 17.837 17.217 17.99 16.955 17.99 C 16.785 17.99 16.629 17.92 16.517 17.793 C 16.281 17.528 16.309 17.118 16.373 16.57 C 16.444 15.873 16.644 15.164 17.002 14.338 C 17.476 13.231 17.677 12.583 17.653 12.238 C 17.639 12.031 17.555 11.947 17.168 11.644 C 16.856 11.399 16.451 11.082 16.018 10.526 C 15.907 10.385 15.79 10.215 15.68 10.015 C 15.634 9.931 15.595 9.85 15.56 9.772 C 15.56 9.771 15.559 9.769 15.558 9.768 L 15.558 22.862 C 16.244 22.862 16.867 23.322 17.032 24.005 C 17.102 24.295 17.082 24.593 16.978 24.866 L 19.46 26.301 L 18.686 26.746 L 16.521 25.495 C 16.344 25.638 16.135 25.741 15.905 25.793 C 15.794 25.819 15.682 25.831 15.572 25.833 L 17.917 27.187 L 17.917 29.9 L 15.577 31.252 C 15.92 31.257 16.252 31.377 16.52 31.593 L 16.522 31.593 C 16.522 31.593 16.517 31.589 16.514 31.586 C 16.517 31.588 16.52 31.59 16.522 31.592 L 18.686 30.342 L 19.46 30.787 L 16.978 32.221 C 16.978 32.221 16.977 32.221 16.976 32.222 C 16.998 32.278 17.017 32.334 17.032 32.394 C 17.124 32.776 17.06 33.171 16.853 33.506 C 16.641 33.85 16.304 34.091 15.905 34.183 C 15.789 34.209 15.673 34.222 15.559 34.222 L 15.558 34.222 L 15.558 35.963 L 27.372 29.137 C 27.375 29.131 27.378 29.124 27.38 29.118 L 27.391 29.093 C 27.408 29.063 27.436 28.957 27.455 28.886 C 27.509 28.629 27.576 28.187 27.594 27.767 C 27.609 27.423 27.586 27.201 27.559 27.063 Z M 50.602 27.408 C 48.993 27.408 47.572 27.063 46.338 26.373 C 45.104 25.683 44.139 24.713 43.441 23.463 C 42.744 22.206 42.395 20.73 42.395 19.035 C 42.395 17.341 42.752 15.868 43.464 14.619 C 44.177 13.361 45.158 12.387 46.407 11.697 C 47.656 11.007 49.085 10.662 50.694 10.662 C 51.529 10.662 52.307 10.754 53.028 10.938 C 53.748 11.114 54.372 11.337 54.901 11.605 L 54.614 14.124 C 54.031 13.856 53.418 13.633 52.775 13.457 C 52.131 13.273 51.43 13.181 50.671 13.181 C 49.491 13.181 48.503 13.438 47.706 13.951 C 46.916 14.458 46.319 15.155 45.913 16.045 C 45.514 16.926 45.315 17.923 45.315 19.035 C 45.315 20.147 45.51 21.148 45.901 22.037 C 46.3 22.919 46.89 23.617 47.671 24.13 C 48.461 24.636 49.438 24.889 50.602 24.889 C 51.384 24.889 52.093 24.805 52.729 24.636 C 53.372 24.468 54.001 24.238 54.614 23.946 L 54.901 26.477 C 54.303 26.753 53.644 26.975 52.924 27.144 C 52.204 27.32 51.43 27.408 50.602 27.408 Z M 59.253 27.316 C 58.61 27.316 58.031 27.178 57.518 26.902 C 57.004 26.626 56.598 26.235 56.299 25.729 C 56.008 25.223 55.863 24.625 55.863 23.935 C 55.863 23.291 56.008 22.739 56.299 22.279 C 56.598 21.811 56.989 21.424 57.472 21.117 C 57.962 20.81 58.495 20.569 59.07 20.392 C 59.652 20.208 60.234 20.074 60.817 19.99 C 61.407 19.905 61.943 19.859 62.426 19.852 C 62.403 19.039 62.215 18.479 61.863 18.173 C 61.518 17.858 60.97 17.701 60.219 17.701 C 59.736 17.701 59.253 17.77 58.771 17.908 C 58.288 18.046 57.74 18.288 57.127 18.633 L 56.863 16.539 C 57.468 16.202 58.111 15.941 58.794 15.757 C 59.483 15.566 60.189 15.47 60.909 15.47 C 61.805 15.47 62.556 15.627 63.161 15.941 C 63.767 16.256 64.223 16.773 64.529 17.494 C 64.844 18.215 65.001 19.177 65.001 20.381 L 65.001 23.187 C 65.001 23.747 65.028 24.173 65.081 24.464 C 65.134 24.755 65.238 24.955 65.391 25.062 C 65.552 25.169 65.794 25.223 66.116 25.223 L 66.426 25.223 L 66.15 27.316 L 65.437 27.316 C 64.916 27.316 64.483 27.255 64.139 27.132 C 63.794 27.017 63.51 26.852 63.288 26.638 C 63.074 26.423 62.89 26.166 62.736 25.867 C 62.345 26.312 61.84 26.665 61.219 26.925 C 60.606 27.186 59.951 27.316 59.253 27.316 Z M 60.15 25.327 C 60.51 25.327 60.905 25.235 61.334 25.05 C 61.763 24.859 62.131 24.59 62.437 24.245 L 62.437 21.6 C 61.702 21.623 61.039 21.719 60.449 21.888 C 59.859 22.049 59.391 22.29 59.047 22.612 C 58.709 22.927 58.541 23.329 58.541 23.82 C 58.541 24.334 58.675 24.713 58.943 24.958 C 59.219 25.204 59.621 25.327 60.15 25.327 Z M 67.753 27.086 L 67.753 15.665 L 69.891 15.665 L 70.155 17.528 L 69.615 17.068 C 70.144 16.57 70.722 16.179 71.351 15.895 C 71.986 15.612 72.695 15.47 73.477 15.47 C 74.067 15.47 74.603 15.562 75.086 15.746 C 75.576 15.922 76.002 16.198 76.362 16.574 C 76.73 16.95 77.025 17.429 77.247 18.012 L 76.592 17.816 C 76.952 17.08 77.484 16.505 78.19 16.091 C 78.894 15.677 79.745 15.47 80.741 15.47 C 81.76 15.47 82.599 15.673 83.259 16.079 C 83.917 16.478 84.404 17.061 84.718 17.827 C 85.04 18.594 85.201 19.518 85.201 20.599 L 85.201 27.086 L 82.626 27.086 L 82.626 20.737 C 82.626 19.672 82.446 18.889 82.086 18.391 C 81.726 17.885 81.128 17.632 80.293 17.632 C 79.81 17.632 79.404 17.712 79.075 17.873 C 78.745 18.027 78.484 18.245 78.293 18.529 C 78.101 18.813 77.963 19.135 77.879 19.495 C 77.802 19.856 77.764 20.239 77.764 20.645 L 77.764 27.086 L 75.19 27.086 L 75.19 20.887 C 75.19 20.097 75.101 19.465 74.925 18.989 C 74.749 18.514 74.484 18.169 74.132 17.954 C 73.779 17.739 73.343 17.632 72.822 17.632 C 72.124 17.632 71.53 17.793 71.04 18.115 C 70.557 18.429 70.174 18.886 69.891 19.484 L 70.316 18.104 L 70.316 27.086 Z M 93.363 27.316 C 92.521 27.316 91.762 27.159 91.087 26.845 C 90.421 26.523 89.857 26.07 89.398 25.488 L 90.122 24.97 L 89.892 27.086 L 87.524 27.086 L 87.524 9.834 L 90.087 9.834 L 90.087 17.689 L 89.49 17.287 C 89.957 16.735 90.517 16.294 91.168 15.964 C 91.827 15.635 92.559 15.47 93.363 15.47 C 94.467 15.47 95.398 15.742 96.156 16.286 C 96.923 16.831 97.505 17.555 97.903 18.46 C 98.302 19.357 98.501 20.335 98.501 21.393 C 98.501 22.474 98.294 23.463 97.88 24.36 C 97.467 25.258 96.877 25.974 96.11 26.511 C 95.344 27.048 94.429 27.316 93.363 27.316 Z M 93.007 25.154 C 93.613 25.154 94.13 24.993 94.559 24.671 C 94.988 24.341 95.314 23.893 95.536 23.325 C 95.766 22.758 95.88 22.114 95.88 21.393 C 95.88 20.657 95.766 20.009 95.536 19.449 C 95.314 18.882 94.988 18.437 94.559 18.115 C 94.13 17.793 93.613 17.632 93.007 17.632 C 92.371 17.632 91.827 17.785 91.375 18.092 C 90.923 18.391 90.574 18.82 90.329 19.38 C 90.084 19.94 89.961 20.611 89.961 21.393 C 89.961 22.19 90.084 22.869 90.329 23.429 C 90.574 23.988 90.923 24.418 91.375 24.717 C 91.827 25.008 92.371 25.154 93.007 25.154 Z M 100.293 27.086 L 100.293 15.665 L 102.615 15.665 L 102.741 17.126 C 103.14 16.658 103.603 16.259 104.132 15.93 C 104.661 15.6 105.232 15.435 105.845 15.435 C 106.029 15.435 106.201 15.454 106.362 15.493 L 106.155 18.104 C 106.012 18.066 105.866 18.043 105.718 18.035 C 105.569 18.019 105.42 18.011 105.27 18.012 C 104.749 18.012 104.27 18.13 103.833 18.368 C 103.397 18.606 103.09 18.882 102.914 19.196 L 102.914 27.086 Z M 107.516 27.086 L 107.516 15.665 L 110.079 15.665 L 110.079 27.086 Z M 107.516 13.641 L 107.516 10.984 L 110.079 10.984 L 110.079 13.641 Z M 115.101 27.316 C 114.457 27.316 113.879 27.178 113.366 26.902 C 112.852 26.626 112.446 26.235 112.147 25.729 C 111.856 25.223 111.71 24.625 111.71 23.935 C 111.71 23.291 111.856 22.739 112.147 22.279 C 112.446 21.811 112.837 21.424 113.32 21.117 C 113.81 20.81 114.343 20.569 114.917 20.392 C 115.499 20.208 116.082 20.074 116.664 19.99 C 117.255 19.905 117.791 19.859 118.274 19.852 C 118.251 19.039 118.063 18.479 117.71 18.173 C 117.366 17.858 116.818 17.701 116.067 17.701 C 115.584 17.701 115.101 17.77 114.618 17.908 C 114.136 18.046 113.588 18.288 112.975 18.633 L 112.71 16.539 C 113.316 16.202 113.959 15.941 114.641 15.757 C 115.331 15.566 116.036 15.47 116.756 15.47 C 117.653 15.47 118.404 15.627 119.009 15.941 C 119.614 16.256 120.071 16.773 120.377 17.494 C 120.691 18.215 120.848 19.177 120.848 20.381 L 120.848 23.187 C 120.848 23.747 120.875 24.173 120.929 24.464 C 120.982 24.755 121.086 24.955 121.239 25.062 C 121.4 25.169 121.641 25.223 121.963 25.223 L 122.274 25.223 L 121.998 27.316 L 121.285 27.316 C 120.764 27.316 120.331 27.255 119.986 27.132 C 119.641 27.017 119.358 26.852 119.136 26.638 C 118.921 26.423 118.737 26.166 118.584 25.867 C 118.193 26.312 117.687 26.665 117.067 26.925 C 116.453 27.186 115.798 27.316 115.101 27.316 Z M 115.998 25.327 C 116.358 25.327 116.752 25.235 117.182 25.05 C 117.611 24.859 117.979 24.59 118.285 24.245 L 118.285 21.6 C 117.549 21.623 116.887 21.719 116.297 21.888 C 115.706 22.049 115.239 22.29 114.894 22.612 C 114.557 22.927 114.389 23.329 114.389 23.82 C 114.389 24.334 114.522 24.713 114.791 24.958 C 115.067 25.204 115.469 25.327 115.998 25.327 Z M 123.601 27.086 L 123.601 15.665 L 125.888 15.665 L 126.106 17.816 L 125.394 17.137 C 125.945 16.593 126.543 16.179 127.187 15.895 C 127.838 15.612 128.547 15.47 129.313 15.47 C 130.845 15.47 131.968 15.953 132.681 16.919 C 133.394 17.885 133.75 19.162 133.75 20.749 L 133.75 27.086 L 131.187 27.086 L 131.187 20.887 C 131.187 19.767 130.991 18.947 130.601 18.426 C 130.21 17.896 129.566 17.632 128.67 17.632 C 127.972 17.632 127.378 17.793 126.888 18.115 C 126.397 18.437 126.014 18.901 125.739 19.507 L 126.164 18.15 L 126.164 27.086 Z" fill="rgb(75,147,40)"></path></svg>