<svg width="61" height="60" viewBox="0 0 61 60" fill="none" xmlns="http://www.w3.org/2000/svg">
<path fill-rule="evenodd" clip-rule="evenodd" d="M23.3489 18.7848C27.0098 18.7516 30.2382 21.703 30.4715 25.3046L30.4669 25.303C30.5037 25.7037 30.5037 26.1029 30.4669 26.496C30.1845 29.5623 27.754 32.2778 24.6147 32.8009C24.1866 32.878 23.7446 32.9174 23.3135 32.9174H7.17941C5.81534 32.931 5.44709 34.756 6.69762 35.2851C6.83724 35.3441 6.98302 35.3728 7.14105 35.3774L8.6064 35.3788H22.8701C27.1265 35.3788 30.2782 38.7113 30.4699 42.4988C30.4822 42.7393 30.4822 42.9812 30.4699 43.2231V43.2518C30.3978 44.6247 29.85 45.931 28.9648 46.9924L18.1089 60H0L19.3058 45.2748C19.588 45.0587 19.8366 44.7759 19.9839 44.4689C20.1312 44.162 20.2003 43.8385 20.2003 43.5195C20.2003 42.343 19.2688 41.2167 17.8742 41.2167C16.3996 41.2127 14.305 41.2146 12.2441 41.2163C10.3503 41.218 8.4848 41.2195 7.15487 41.2167C3.49382 41.2498 0.26545 38.2985 0.0322216 34.697C-0.00460122 34.2964 -0.00460119 33.8971 0.0322217 33.504C0.314549 30.4378 2.74503 27.7223 5.88439 27.199C6.31249 27.1219 6.75439 27.0827 7.18555 27.0827H23.3196C24.6837 27.0691 25.052 25.2441 23.8014 24.7149C23.6618 24.6559 23.5161 24.6271 23.358 24.6227L21.8927 24.6211H7.62899C3.36492 24.6211 0.21175 21.2766 0.0291593 17.4815C0.0168832 17.2548 0.0168833 17.0249 0.0291593 16.7966V16.7678C0.0951378 15.3874 0.644448 14.0735 1.5344 13.0061L12.3887 3.42132e-06L30.4976 4.98562e-06L11.198 14.7267C10.9157 14.943 10.6671 15.2256 10.5198 15.5326C10.3725 15.8396 10.3034 16.163 10.3034 16.4822C10.3034 17.6585 11.2348 18.7848 12.6296 18.7848C14.1042 18.7888 16.1988 18.7871 18.2599 18.7852C20.1536 18.7835 22.0189 18.782 23.3489 18.7848ZM37.6526 18.7848C33.9917 18.7516 30.7633 21.703 30.53 25.3046L30.5316 25.303C30.4948 25.7037 30.4948 26.1028 30.5316 26.496C30.814 29.5623 33.2443 32.2778 36.3838 32.8009C36.8119 32.878 37.2537 32.9174 37.6849 32.9174H53.819C55.1831 32.931 55.5513 34.756 54.3009 35.2851C54.1612 35.3441 54.0155 35.3728 53.8573 35.3788H38.1299C33.8735 35.3788 30.7219 38.7113 30.53 42.4988C30.5178 42.7393 30.5178 42.9812 30.53 43.2231V43.2518C30.6021 44.6247 31.1499 45.931 32.0353 46.9924L42.8911 60H61L41.6989 45.2748C41.4165 45.0585 41.1679 44.7759 41.0206 44.4689C40.8734 44.162 40.8043 43.8385 40.8043 43.5195C40.8043 42.343 41.7357 41.2167 43.1305 41.2167C44.605 41.2127 46.6995 41.2146 48.7604 41.2163C50.6544 41.218 52.5198 41.2195 53.8497 41.2167C57.5108 41.2498 60.7392 38.2985 60.9723 34.6969C61.0092 34.2964 61.0092 33.8971 60.9723 33.504C60.6885 30.4362 58.2596 27.7223 55.1186 27.199C54.6906 27.1219 54.2486 27.0827 53.8175 27.0827H37.6819C36.3178 27.069 35.9495 25.2441 37.2001 24.7148C37.3397 24.6559 37.4854 24.6271 37.6435 24.6211H53.3709C57.635 24.6211 60.7882 21.2766 60.9709 17.4815C60.9832 17.2548 60.9832 17.0249 60.9709 16.7966V16.7678C60.9048 15.3874 60.3556 14.0735 59.4656 13.0061L48.6129 1.56429e-06L30.5039 0L49.8035 14.7267C50.0859 14.943 50.3344 15.2256 50.4817 15.5326C50.6291 15.8395 50.698 16.163 50.698 16.4822C50.698 17.6585 49.7667 18.7848 48.3719 18.7848C46.8973 18.7888 44.8027 18.7871 42.7418 18.7852C40.848 18.7835 38.9826 18.782 37.6526 18.7848Z" fill="white"/>
</svg>
